# xmcd CD database file
#
# Track frame offsets:
#	150
#	16300
#	34426
#	49113
#	68779
#	89866
#	106186
#	119788
#	139051
#	155590
#	173017
#
# Disc length: 2625 seconds
#
# Revision: 0
# Processed by: cddbd v1.5.2PL0 Copyright (c) Steve Scherf et al.
# Submitted via: CDex 1.79
#
DISCID=9c0a3f0b
DTITLE=A Gentle Conversation - Three
DYEAR=2016
DGENRE=Blues
TTITLE0=A Gentle Conversation - Everybody
TTITLE1=A Gentle Conversation - Feeling Good
TTITLE2=A Gentle Conversation - No Diggity
TTITLE3=A Gentle Conversation - Overload
TTITLE4=A Gentle Conversation - Maniac
TTITLE5=A Gentle Conversation - Roxanne
TTITLE6=A Gentle Conversation - Wayfaring Stranger
TTITLE7=A Gentle Conversation - Money
TTITLE8=A Gentle Conversation - Muscle Museum
TTITLE9=A Gentle Conversation - Toxic
TTITLE10=A Gentle Conversation - Gravity
EXTD=YEAR: 2016
EXTT0=
EXTT1=
EXTT2=
EXTT3=
EXTT4=
EXTT5=
EXTT6=
EXTT7=
EXTT8=
EXTT9=
EXTT10=
PLAYORDER=
